<?xml version="1.0" encoding="UTF-8"?>
<svg xmlns="http://www.w3.org/2000/svg" width="506" height="900" viewBox="0 0 506 900" preserveAspectRatio="xMidYMid meet">
  <rect width="100%" height="100%" fill="black"/>
  <path d="M 290.00,650.00 289.00,651.00 285.00,651.00 284.00,652.00 282.00,652.00 281.00,653.00 280.00,653.00 279.00,654.00 278.00,654.00 277.00,655.00 276.00,655.00 272.00,659.00 272.00,660.00 279.00,660.00 280.00,661.00 286.00,661.00 287.00,662.00 291.00,662.00 292.00,663.00 296.00,663.00 297.00,664.00 300.00,664.00 301.00,665.00 304.00,665.00 305.00,666.00 308.00,666.00 309.00,667.00 311.00,667.00 312.00,668.00 313.00,668.00 315.00,670.00 315.00,672.00 314.00,673.00 310.00,673.00 309.00,672.00 302.00,672.00 301.00,671.00 302.00,670.00 306.00,670.00 306.00,669.00 302.00,669.00 301.00,668.00 292.00,668.00 291.00,667.00 285.00,667.00 284.00,668.00 276.00,668.00 275.00,669.00 271.00,669.00 271.00,671.00 276.00,676.00 276.00,677.00 277.00,678.00 277.00,679.00 278.00,680.00 278.00,681.00 279.00,682.00 279.00,683.00 280.00,684.00 280.00,685.00 281.00,686.00 291.00,686.00 292.00,685.00 298.00,685.00 299.00,684.00 302.00,684.00 303.00,683.00 304.00,683.00 305.00,682.00 306.00,682.00 307.00,681.00 308.00,681.00 311.00,678.00 312.00,678.00 315.00,675.00 316.00,675.00 320.00,671.00 321.00,671.00 327.00,665.00 328.00,665.00 333.00,660.00 334.00,660.00 337.00,657.00 336.00,657.00 335.00,656.00 333.00,656.00 332.00,655.00 331.00,655.00 330.00,654.00 327.00,654.00 326.00,653.00 324.00,653.00 323.00,652.00 320.00,652.00 319.00,651.00 313.00,651.00 312.00,650.00 Z" fill="white" stroke="none"/>
  <path d="M 185.00,646.00 184.00,647.00 176.00,647.00 175.00,648.00 171.00,648.00 170.00,649.00 168.00,649.00 169.00,649.00 170.00,650.00 175.00,650.00 176.00,651.00 180.00,651.00 181.00,652.00 183.00,652.00 184.00,653.00 186.00,653.00 187.00,654.00 190.00,654.00 191.00,655.00 192.00,655.00 193.00,656.00 195.00,656.00 196.00,657.00 198.00,657.00 199.00,658.00 201.00,658.00 202.00,659.00 203.00,659.00 204.00,660.00 206.00,660.00 207.00,661.00 205.00,663.00 204.00,662.00 203.00,662.00 202.00,663.00 192.00,663.00 191.00,664.00 186.00,664.00 185.00,665.00 182.00,665.00 181.00,666.00 179.00,666.00 178.00,667.00 177.00,667.00 176.00,668.00 175.00,668.00 174.00,669.00 175.00,669.00 176.00,670.00 178.00,670.00 179.00,671.00 181.00,671.00 182.00,672.00 183.00,672.00 184.00,673.00 186.00,673.00 187.00,674.00 188.00,674.00 189.00,675.00 190.00,675.00 191.00,676.00 192.00,676.00 193.00,677.00 194.00,677.00 196.00,679.00 197.00,679.00 199.00,681.00 200.00,681.00 206.00,687.00 215.00,687.00 216.00,688.00 245.00,688.00 245.00,678.00 246.00,677.00 246.00,673.00 247.00,672.00 247.00,668.00 248.00,667.00 248.00,659.00 249.00,658.00 249.00,657.00 248.00,656.00 239.00,656.00 238.00,655.00 234.00,655.00 233.00,654.00 232.00,654.00 231.00,653.00 229.00,653.00 228.00,652.00 227.00,652.00 226.00,651.00 224.00,651.00 223.00,650.00 221.00,650.00 220.00,649.00 217.00,649.00 216.00,648.00 213.00,648.00 212.00,647.00 205.00,647.00 204.00,646.00 Z" fill="white" stroke="none"/>
  <path d="M 266.00,623.00 263.00,626.00 262.00,626.00 261.00,627.00 260.00,627.00 258.00,629.00 256.00,629.00 255.00,630.00 253.00,630.00 252.00,631.00 248.00,631.00 248.00,639.00 249.00,640.00 249.00,645.00 250.00,645.00 251.00,644.00 251.00,643.00 255.00,639.00 255.00,638.00 259.00,634.00 259.00,633.00 262.00,630.00 262.00,629.00 265.00,626.00 265.00,625.00 267.00,623.00 Z" fill="white" stroke="none"/>
  <path d="M 204.00,607.00 205.00,608.00 205.00,609.00 206.00,610.00 206.00,611.00 207.00,612.00 207.00,613.00 208.00,614.00 208.00,616.00 210.00,618.00 210.00,619.00 211.00,620.00 211.00,621.00 212.00,622.00 212.00,623.00 213.00,624.00 213.00,625.00 214.00,626.00 214.00,627.00 215.00,628.00 215.00,629.00 216.00,630.00 216.00,631.00 217.00,632.00 217.00,633.00 218.00,634.00 218.00,635.00 219.00,636.00 219.00,637.00 220.00,638.00 220.00,639.00 222.00,641.00 222.00,642.00 223.00,643.00 223.00,644.00 225.00,646.00 225.00,647.00 226.00,648.00 227.00,648.00 228.00,649.00 230.00,649.00 231.00,650.00 232.00,650.00 233.00,651.00 234.00,651.00 235.00,652.00 236.00,652.00 236.00,651.00 232.00,647.00 232.00,646.00 228.00,642.00 228.00,641.00 225.00,638.00 225.00,637.00 222.00,634.00 222.00,633.00 220.00,631.00 220.00,630.00 217.00,627.00 217.00,626.00 215.00,624.00 215.00,623.00 213.00,621.00 213.00,620.00 211.00,618.00 211.00,617.00 209.00,615.00 209.00,614.00 207.00,612.00 207.00,611.00 205.00,609.00 205.00,608.00 Z" fill="white" stroke="none"/>
  <path d="M 315.00,593.00 315.00,610.00 318.00,613.00 319.00,613.00 323.00,617.00 324.00,617.00 328.00,621.00 329.00,621.00 346.00,638.00 346.00,639.00 347.00,640.00 347.00,641.00 348.00,641.00 348.00,640.00 349.00,639.00 349.00,638.00 351.00,636.00 351.00,634.00 352.00,633.00 352.00,632.00 353.00,631.00 353.00,630.00 354.00,629.00 354.00,628.00 332.00,606.00 331.00,606.00 325.00,600.00 324.00,600.00 320.00,596.00 319.00,596.00 317.00,594.00 316.00,594.00 Z" fill="white" stroke="none"/>
  <path d="M 204.00,554.00 204.00,556.00 205.00,557.00 205.00,558.00 207.00,560.00 207.00,561.00 208.00,562.00 208.00,563.00 210.00,565.00 210.00,566.00 213.00,569.00 213.00,570.00 223.00,580.00 224.00,580.00 225.00,581.00 226.00,580.00 226.00,577.00 227.00,576.00 227.00,575.00 228.00,574.00 228.00,572.00 229.00,571.00 229.00,569.00 230.00,568.00 230.00,566.00 231.00,565.00 231.00,564.00 232.00,563.00 232.00,561.00 233.00,560.00 233.00,559.00 234.00,558.00 234.00,557.00 235.00,556.00 235.00,555.00 234.00,556.00 226.00,556.00 225.00,555.00 205.00,555.00 Z" fill="white" stroke="none"/>
  <path d="M 159.00,534.00 159.00,537.00 160.00,538.00 160.00,540.00 162.00,542.00 162.00,543.00 165.00,546.00 165.00,547.00 166.00,547.00 171.00,552.00 172.00,552.00 173.00,553.00 174.00,553.00 176.00,555.00 177.00,555.00 178.00,556.00 179.00,556.00 180.00,557.00 180.00,555.00 179.00,554.00 179.00,553.00 176.00,553.00 175.00,552.00 174.00,552.00 172.00,550.00 171.00,550.00 167.00,546.00 167.00,545.00 165.00,543.00 165.00,541.00 164.00,540.00 164.00,539.00 163.00,538.00 163.00,537.00 162.00,536.00 162.00,535.00 161.00,535.00 160.00,534.00 Z" fill="white" stroke="none"/>
  <path d="M 312.00,531.00 310.00,533.00 309.00,533.00 306.00,536.00 305.00,536.00 303.00,538.00 303.00,539.00 301.00,541.00 301.00,542.00 297.00,546.00 289.00,546.00 288.00,547.00 280.00,547.00 279.00,548.00 271.00,548.00 270.00,549.00 265.00,549.00 265.00,550.00 269.00,550.00 270.00,551.00 282.00,551.00 283.00,552.00 290.00,552.00 291.00,553.00 294.00,553.00 295.00,554.00 294.00,555.00 284.00,555.00 283.00,556.00 278.00,556.00 277.00,557.00 276.00,557.00 275.00,558.00 274.00,558.00 273.00,559.00 272.00,559.00 271.00,560.00 270.00,560.00 269.00,561.00 268.00,561.00 266.00,563.00 265.00,563.00 264.00,564.00 263.00,564.00 261.00,566.00 259.00,566.00 258.00,565.00 257.00,565.00 255.00,563.00 254.00,563.00 251.00,560.00 250.00,560.00 249.00,559.00 244.00,559.00 244.00,580.00 249.00,580.00 250.00,579.00 251.00,579.00 253.00,577.00 254.00,577.00 255.00,578.00 254.00,579.00 254.00,580.00 251.00,583.00 250.00,583.00 248.00,585.00 253.00,585.00 254.00,584.00 257.00,584.00 258.00,585.00 259.00,585.00 261.00,587.00 261.00,588.00 260.00,589.00 259.00,588.00 248.00,588.00 247.00,589.00 241.00,589.00 241.00,590.00 243.00,592.00 244.00,592.00 245.00,593.00 246.00,593.00 247.00,592.00 253.00,592.00 254.00,591.00 255.00,592.00 256.00,592.00 258.00,594.00 258.00,595.00 259.00,596.00 257.00,598.00 256.00,598.00 254.00,600.00 253.00,600.00 251.00,602.00 250.00,602.00 248.00,604.00 247.00,604.00 245.00,606.00 244.00,606.00 242.00,608.00 242.00,614.00 243.00,614.00 245.00,616.00 246.00,616.00 247.00,617.00 248.00,617.00 249.00,618.00 256.00,618.00 257.00,617.00 259.00,617.00 262.00,614.00 263.00,614.00 268.00,609.00 269.00,609.00 275.00,603.00 276.00,603.00 280.00,599.00 281.00,599.00 287.00,593.00 288.00,593.00 293.00,588.00 294.00,588.00 296.00,586.00 296.00,585.00 298.00,583.00 298.00,581.00 299.00,580.00 299.00,578.00 300.00,577.00 300.00,575.00 301.00,574.00 301.00,573.00 302.00,572.00 302.00,571.00 303.00,570.00 303.00,568.00 304.00,567.00 304.00,566.00 305.00,565.00 305.00,563.00 306.00,562.00 306.00,561.00 307.00,560.00 307.00,558.00 308.00,557.00 308.00,556.00 309.00,555.00 309.00,554.00 310.00,553.00 310.00,551.00 311.00,550.00 311.00,549.00 312.00,548.00 312.00,546.00 313.00,545.00 313.00,544.00 314.00,543.00 314.00,542.00 315.00,541.00 315.00,539.00 316.00,538.00 316.00,537.00 317.00,536.00 317.00,535.00 318.00,534.00 318.00,533.00 317.00,533.00 315.00,535.00 314.00,535.00 312.00,537.00 311.00,537.00 310.00,538.00 309.00,537.00 309.00,536.00 311.00,534.00 311.00,533.00 312.00,532.00 Z" fill="white" stroke="none"/>
  <path d="M 323.00,530.00 324.00,531.00 325.00,531.00 324.00,530.00 Z" fill="white" stroke="none"/>
  <path d="M 307.00,524.00 304.00,527.00 303.00,527.00 299.00,531.00 298.00,531.00 296.00,533.00 295.00,533.00 291.00,537.00 290.00,537.00 289.00,538.00 288.00,538.00 287.00,537.00 288.00,536.00 288.00,534.00 289.00,533.00 289.00,531.00 288.00,532.00 288.00,533.00 287.00,534.00 287.00,535.00 282.00,540.00 281.00,540.00 280.00,541.00 279.00,541.00 278.00,542.00 267.00,542.00 265.00,544.00 264.00,544.00 263.00,545.00 263.00,546.00 264.00,546.00 265.00,545.00 274.00,545.00 275.00,544.00 283.00,544.00 284.00,543.00 292.00,543.00 293.00,542.00 297.00,542.00 299.00,540.00 299.00,539.00 300.00,538.00 300.00,537.00 302.00,535.00 302.00,534.00 304.00,532.00 304.00,531.00 306.00,529.00 306.00,527.00 307.00,526.00 Z" fill="white" stroke="none"/>
  <path d="M 187.00,524.00 187.00,526.00 188.00,527.00 188.00,528.00 189.00,529.00 189.00,531.00 190.00,532.00 190.00,534.00 191.00,535.00 191.00,536.00 192.00,537.00 192.00,539.00 193.00,540.00 198.00,540.00 199.00,541.00 205.00,541.00 206.00,542.00 212.00,542.00 213.00,543.00 219.00,543.00 220.00,544.00 226.00,544.00 227.00,545.00 229.00,545.00 229.00,544.00 228.00,544.00 225.00,541.00 222.00,541.00 221.00,542.00 214.00,542.00 213.00,541.00 211.00,541.00 210.00,540.00 209.00,540.00 207.00,538.00 207.00,537.00 206.00,536.00 206.00,534.00 205.00,533.00 205.00,532.00 204.00,532.00 203.00,531.00 201.00,531.00 200.00,530.00 199.00,530.00 198.00,529.00 197.00,529.00 196.00,528.00 196.00,529.00 195.00,530.00 195.00,534.00 194.00,535.00 193.00,535.00 191.00,533.00 191.00,532.00 190.00,531.00 190.00,530.00 189.00,529.00 189.00,527.00 188.00,526.00 188.00,525.00 Z" fill="white" stroke="none"/>
  <path d="M 343.00,514.00 342.00,515.00 342.00,516.00 340.00,518.00 340.00,519.00 339.00,520.00 339.00,521.00 338.00,522.00 338.00,524.00 336.00,526.00 335.00,525.00 335.00,522.00 333.00,524.00 332.00,524.00 331.00,525.00 330.00,525.00 329.00,526.00 328.00,526.00 327.00,527.00 327.00,529.00 329.00,531.00 329.00,535.00 328.00,536.00 328.00,537.00 327.00,538.00 327.00,540.00 326.00,541.00 326.00,545.00 322.00,549.00 321.00,549.00 320.00,550.00 319.00,550.00 317.00,552.00 316.00,552.00 315.00,553.00 314.00,553.00 312.00,555.00 312.00,557.00 311.00,558.00 311.00,559.00 312.00,558.00 313.00,558.00 315.00,556.00 316.00,556.00 318.00,554.00 319.00,554.00 321.00,552.00 322.00,552.00 325.00,549.00 326.00,549.00 329.00,546.00 329.00,545.00 331.00,543.00 331.00,542.00 332.00,541.00 332.00,540.00 333.00,539.00 333.00,538.00 334.00,537.00 334.00,536.00 335.00,535.00 335.00,534.00 336.00,533.00 336.00,532.00 337.00,531.00 337.00,530.00 338.00,529.00 338.00,528.00 339.00,527.00 339.00,526.00 340.00,525.00 340.00,523.00 341.00,522.00 341.00,521.00 342.00,520.00 342.00,517.00 343.00,516.00 Z" fill="white" stroke="none"/>
  <path d="M 127.00,509.00 128.00,509.00 130.00,511.00 131.00,511.00 132.00,512.00 133.00,512.00 135.00,514.00 136.00,514.00 137.00,515.00 138.00,515.00 139.00,516.00 140.00,516.00 141.00,517.00 142.00,517.00 144.00,519.00 146.00,519.00 146.00,515.00 145.00,514.00 145.00,511.00 144.00,511.00 143.00,510.00 134.00,510.00 133.00,509.00 Z" fill="white" stroke="none"/>
  <path d="M 286.00,508.00 285.00,509.00 284.00,509.00 282.00,511.00 281.00,511.00 279.00,513.00 278.00,513.00 275.00,516.00 274.00,516.00 270.00,520.00 269.00,520.00 264.00,525.00 263.00,525.00 260.00,528.00 259.00,528.00 257.00,530.00 257.00,532.00 262.00,537.00 263.00,536.00 264.00,536.00 265.00,535.00 266.00,535.00 268.00,533.00 269.00,533.00 270.00,532.00 271.00,532.00 273.00,530.00 274.00,530.00 276.00,528.00 277.00,528.00 278.00,527.00 279.00,527.00 281.00,525.00 282.00,525.00 284.00,523.00 285.00,523.00 286.00,522.00 286.00,512.00 287.00,511.00 287.00,508.00 Z" fill="white" stroke="none"/>
  <path d="M 212.00,495.00 210.00,497.00 210.00,498.00 204.00,504.00 207.00,507.00 208.00,507.00 212.00,511.00 212.00,496.00 213.00,495.00 Z" fill="white" stroke="none"/>
  <path d="M 277.00,476.00 275.00,478.00 274.00,478.00 264.00,488.00 263.00,488.00 263.00,489.00 247.00,505.00 247.00,506.00 244.00,509.00 244.00,510.00 243.00,511.00 243.00,514.00 242.00,515.00 242.00,529.00 241.00,530.00 240.00,530.00 229.00,519.00 229.00,520.00 228.00,521.00 228.00,522.00 227.00,523.00 227.00,524.00 226.00,525.00 226.00,526.00 224.00,528.00 224.00,529.00 223.00,530.00 223.00,531.00 225.00,533.00 226.00,533.00 228.00,535.00 229.00,535.00 231.00,537.00 232.00,537.00 234.00,539.00 235.00,539.00 236.00,540.00 239.00,540.00 239.00,539.00 240.00,538.00 240.00,536.00 242.00,534.00 243.00,535.00 243.00,537.00 242.00,538.00 242.00,543.00 241.00,544.00 241.00,545.00 242.00,546.00 245.00,546.00 246.00,545.00 246.00,538.00 247.00,537.00 248.00,538.00 248.00,546.00 249.00,547.00 250.00,546.00 250.00,534.00 251.00,533.00 251.00,531.00 252.00,530.00 252.00,529.00 260.00,521.00 261.00,521.00 269.00,513.00 270.00,513.00 272.00,511.00 273.00,511.00 274.00,510.00 275.00,510.00 276.00,509.00 277.00,509.00 278.00,508.00 279.00,508.00 280.00,507.00 282.00,507.00 283.00,506.00 284.00,506.00 285.00,505.00 286.00,505.00 287.00,504.00 287.00,495.00 286.00,494.00 286.00,489.00 285.00,488.00 285.00,487.00 284.00,486.00 284.00,485.00 283.00,484.00 283.00,483.00 282.00,482.00 282.00,481.00 281.00,480.00 281.00,479.00 279.00,477.00 279.00,476.00 Z" fill="white" stroke="none"/>
  <path d="M 187.00,460.00 183.00,464.00 183.00,465.00 178.00,470.00 178.00,471.00 175.00,474.00 175.00,475.00 171.00,479.00 171.00,480.00 169.00,482.00 169.00,483.00 167.00,485.00 167.00,486.00 165.00,488.00 165.00,500.00 166.00,501.00 166.00,505.00 167.00,506.00 167.00,508.00 168.00,509.00 168.00,512.00 169.00,513.00 169.00,514.00 170.00,515.00 170.00,516.00 171.00,517.00 171.00,519.00 172.00,520.00 172.00,521.00 174.00,523.00 174.00,524.00 175.00,525.00 175.00,526.00 177.00,528.00 177.00,529.00 178.00,530.00 178.00,527.00 177.00,526.00 177.00,523.00 176.00,522.00 176.00,519.00 175.00,518.00 175.00,502.00 176.00,501.00 176.00,500.00 177.00,499.00 177.00,498.00 178.00,497.00 178.00,489.00 177.00,489.00 177.00,490.00 175.00,492.00 175.00,493.00 174.00,494.00 174.00,496.00 173.00,497.00 173.00,499.00 172.00,500.00 172.00,513.00 173.00,514.00 173.00,517.00 172.00,518.00 171.00,517.00 171.00,515.00 170.00,514.00 170.00,510.00 169.00,509.00 169.00,503.00 170.00,502.00 170.00,497.00 171.00,496.00 171.00,494.00 172.00,493.00 172.00,492.00 173.00,491.00 173.00,490.00 174.00,489.00 174.00,488.00 175.00,487.00 175.00,486.00 177.00,484.00 177.00,483.00 179.00,481.00 179.00,480.00 180.00,479.00 180.00,477.00 181.00,476.00 181.00,475.00 182.00,474.00 182.00,472.00 183.00,471.00 183.00,470.00 184.00,469.00 184.00,467.00 185.00,466.00 185.00,465.00 186.00,464.00 186.00,462.00 187.00,461.00 Z" fill="white" stroke="none"/>
  <path d="M 118.00,457.00 129.00,468.00 130.00,468.00 132.00,470.00 132.00,471.00 133.00,471.00 145.00,483.00 146.00,483.00 148.00,485.00 149.00,484.00 140.00,475.00 139.00,475.00 131.00,467.00 130.00,467.00 126.00,463.00 126.00,461.00 125.00,460.00 124.00,460.00 123.00,459.00 122.00,459.00 121.00,458.00 120.00,458.00 119.00,457.00 Z" fill="white" stroke="none"/>
  <path d="M 325.00,451.00 325.00,452.00 326.00,453.00 326.00,457.00 327.00,458.00 327.00,465.00 328.00,466.00 328.00,478.00 327.00,479.00 327.00,482.00 326.00,483.00 326.00,484.00 325.00,485.00 325.00,486.00 324.00,487.00 324.00,488.00 323.00,489.00 323.00,490.00 321.00,492.00 321.00,494.00 319.00,496.00 319.00,497.00 318.00,498.00 318.00,499.00 317.00,500.00 317.00,501.00 316.00,502.00 316.00,503.00 315.00,504.00 315.00,505.00 314.00,506.00 314.00,507.00 313.00,508.00 313.00,509.00 312.00,510.00 312.00,511.00 311.00,512.00 311.00,513.00 313.00,513.00 318.00,508.00 318.00,507.00 320.00,505.00 320.00,504.00 321.00,503.00 321.00,502.00 322.00,501.00 322.00,500.00 323.00,499.00 323.00,498.00 324.00,497.00 324.00,495.00 325.00,494.00 325.00,493.00 326.00,492.00 326.00,490.00 327.00,489.00 327.00,488.00 328.00,487.00 328.00,485.00 329.00,484.00 329.00,482.00 330.00,481.00 330.00,479.00 331.00,478.00 331.00,474.00 332.00,473.00 332.00,466.00 331.00,465.00 331.00,462.00 330.00,461.00 330.00,460.00 329.00,459.00 329.00,458.00 328.00,457.00 328.00,456.00 327.00,455.00 327.00,454.00 326.00,453.00 326.00,452.00 Z" fill="white" stroke="none"/>
  <path d="M 120.00,447.00 122.00,449.00 122.00,450.00 123.00,450.00 126.00,453.00 126.00,454.00 129.00,457.00 130.00,457.00 136.00,463.00 135.00,464.00 133.00,464.00 132.00,463.00 131.00,463.00 141.00,473.00 142.00,473.00 147.00,478.00 148.00,478.00 149.00,479.00 149.00,478.00 148.00,477.00 148.00,476.00 147.00,475.00 147.00,473.00 146.00,472.00 146.00,471.00 145.00,470.00 145.00,469.00 144.00,468.00 144.00,467.00 143.00,466.00 143.00,465.00 140.00,462.00 139.00,462.00 136.00,459.00 135.00,459.00 131.00,455.00 130.00,455.00 128.00,453.00 127.00,453.00 123.00,449.00 122.00,449.00 Z" fill="white" stroke="none"/>
  <path d="M 272.00,446.00 271.00,447.00 270.00,447.00 268.00,449.00 267.00,449.00 261.00,455.00 261.00,456.00 257.00,460.00 257.00,461.00 256.00,462.00 259.00,459.00 260.00,459.00 262.00,457.00 263.00,457.00 264.00,458.00 261.00,461.00 260.00,461.00 251.00,470.00 251.00,471.00 244.00,478.00 244.00,479.00 240.00,483.00 240.00,484.00 238.00,486.00 238.00,487.00 236.00,489.00 236.00,490.00 234.00,492.00 234.00,493.00 233.00,494.00 233.00,495.00 231.00,497.00 231.00,498.00 230.00,499.00 230.00,500.00 229.00,501.00 229.00,503.00 228.00,504.00 228.00,505.00 227.00,506.00 227.00,508.00 226.00,509.00 226.00,510.00 225.00,511.00 225.00,514.00 224.00,515.00 224.00,519.00 223.00,520.00 223.00,523.00 225.00,521.00 225.00,520.00 228.00,517.00 228.00,516.00 229.00,515.00 229.00,514.00 232.00,511.00 232.00,510.00 234.00,508.00 234.00,507.00 237.00,504.00 237.00,503.00 239.00,501.00 239.00,500.00 242.00,497.00 242.00,496.00 245.00,493.00 245.00,492.00 249.00,488.00 249.00,487.00 252.00,484.00 252.00,483.00 257.00,478.00 257.00,477.00 273.00,461.00 274.00,461.00 276.00,459.00 278.00,459.00 279.00,458.00 280.00,458.00 283.00,461.00 283.00,462.00 284.00,463.00 284.00,461.00 285.00,460.00 285.00,454.00 284.00,453.00 284.00,452.00 283.00,451.00 283.00,450.00 280.00,447.00 279.00,447.00 278.00,446.00 Z" fill="white" stroke="none"/>
  <path d="M 319.00,443.00 319.00,444.00 320.00,445.00 320.00,447.00 321.00,448.00 321.00,452.00 322.00,453.00 322.00,473.00 321.00,474.00 321.00,478.00 320.00,479.00 320.00,481.00 319.00,482.00 319.00,484.00 318.00,485.00 318.00,487.00 317.00,488.00 317.00,489.00 316.00,490.00 316.00,492.00 315.00,493.00 315.00,494.00 314.00,495.00 314.00,496.00 313.00,497.00 313.00,498.00 312.00,499.00 312.00,500.00 311.00,501.00 311.00,502.00 309.00,504.00 309.00,505.00 308.00,506.00 308.00,507.00 306.00,509.00 311.00,504.00 311.00,503.00 313.00,501.00 313.00,500.00 314.00,499.00 314.00,498.00 316.00,496.00 316.00,495.00 318.00,493.00 318.00,492.00 319.00,491.00 319.00,490.00 320.00,489.00 320.00,488.00 321.00,487.00 321.00,486.00 322.00,485.00 322.00,484.00 323.00,483.00 323.00,480.00 324.00,479.00 324.00,475.00 325.00,474.00 325.00,464.00 324.00,463.00 324.00,458.00 323.00,457.00 323.00,454.00 322.00,453.00 322.00,450.00 321.00,449.00 321.00,446.00 320.00,445.00 320.00,444.00 Z" fill="white" stroke="none"/>
  <path d="M 234.00,443.00 233.00,444.00 231.00,444.00 230.00,445.00 231.00,445.00 232.00,444.00 237.00,444.00 237.00,443.00 Z" fill="white" stroke="none"/>
  <path d="M 278.00,433.00 277.00,434.00 276.00,434.00 275.00,435.00 274.00,435.00 273.00,436.00 272.00,436.00 270.00,438.00 269.00,438.00 264.00,443.00 263.00,443.00 258.00,448.00 258.00,449.00 252.00,455.00 252.00,456.00 250.00,458.00 254.00,454.00 255.00,454.00 259.00,450.00 260.00,450.00 263.00,447.00 264.00,447.00 265.00,446.00 266.00,446.00 268.00,444.00 270.00,444.00 271.00,443.00 279.00,443.00 280.00,444.00 281.00,444.00 283.00,446.00 284.00,446.00 286.00,448.00 286.00,449.00 287.00,450.00 287.00,451.00 288.00,452.00 288.00,448.00 289.00,447.00 289.00,439.00 288.00,438.00 288.00,436.00 287.00,435.00 287.00,434.00 286.00,434.00 285.00,433.00 Z" fill="white" stroke="none"/>
  <path d="M 239.00,431.00 238.00,432.00 236.00,432.00 235.00,433.00 234.00,433.00 233.00,434.00 232.00,434.00 231.00,435.00 230.00,435.00 229.00,436.00 228.00,436.00 226.00,438.00 225.00,438.00 223.00,440.00 222.00,440.00 220.00,442.00 219.00,442.00 218.00,443.00 219.00,442.00 221.00,442.00 222.00,441.00 223.00,441.00 224.00,440.00 225.00,440.00 226.00,439.00 227.00,439.00 228.00,438.00 230.00,438.00 231.00,437.00 232.00,437.00 233.00,438.00 231.00,440.00 230.00,440.00 229.00,441.00 228.00,441.00 227.00,442.00 226.00,442.00 224.00,444.00 223.00,444.00 221.00,446.00 220.00,446.00 218.00,448.00 217.00,448.00 206.00,459.00 206.00,460.00 203.00,463.00 203.00,464.00 202.00,465.00 202.00,466.00 201.00,467.00 201.00,468.00 200.00,469.00 200.00,471.00 199.00,472.00 199.00,473.00 198.00,474.00 198.00,476.00 197.00,477.00 197.00,479.00 196.00,480.00 196.00,483.00 195.00,484.00 195.00,487.00 194.00,488.00 194.00,495.00 194.00,494.00 195.00,493.00 195.00,490.00 196.00,489.00 197.00,490.00 197.00,494.00 198.00,494.00 198.00,493.00 200.00,491.00 200.00,490.00 215.00,475.00 216.00,475.00 217.00,474.00 218.00,474.00 219.00,473.00 219.00,472.00 220.00,471.00 220.00,470.00 221.00,469.00 221.00,467.00 222.00,466.00 222.00,465.00 223.00,464.00 223.00,463.00 224.00,462.00 224.00,461.00 225.00,460.00 225.00,459.00 226.00,458.00 226.00,457.00 228.00,455.00 228.00,454.00 229.00,453.00 229.00,452.00 232.00,449.00 231.00,449.00 229.00,451.00 228.00,451.00 225.00,454.00 224.00,454.00 222.00,456.00 221.00,456.00 217.00,460.00 216.00,460.00 209.00,467.00 208.00,467.00 207.00,466.00 207.00,465.00 210.00,462.00 210.00,461.00 212.00,459.00 212.00,458.00 217.00,453.00 217.00,452.00 224.00,445.00 225.00,445.00 228.00,442.00 229.00,442.00 230.00,441.00 231.00,441.00 232.00,440.00 234.00,440.00 235.00,439.00 237.00,439.00 238.00,440.00 240.00,440.00 242.00,438.00 242.00,437.00 244.00,435.00 244.00,434.00 246.00,432.00 246.00,431.00 Z" fill="white" stroke="none"/>
  <path d="M 91.00,411.00 93.00,413.00 93.00,414.00 96.00,417.00 96.00,418.00 99.00,421.00 99.00,422.00 104.00,427.00 104.00,428.00 119.00,443.00 120.00,443.00 125.00,448.00 126.00,448.00 129.00,451.00 130.00,451.00 133.00,454.00 134.00,454.00 136.00,456.00 137.00,456.00 138.00,457.00 138.00,456.00 137.00,455.00 137.00,454.00 136.00,453.00 136.00,451.00 135.00,450.00 135.00,449.00 134.00,448.00 134.00,447.00 133.00,446.00 133.00,445.00 132.00,444.00 132.00,443.00 131.00,442.00 131.00,440.00 130.00,439.00 130.00,438.00 129.00,437.00 129.00,436.00 128.00,435.00 128.00,434.00 127.00,434.00 126.00,433.00 125.00,433.00 124.00,432.00 123.00,432.00 122.00,431.00 121.00,431.00 120.00,430.00 119.00,430.00 117.00,428.00 116.00,428.00 115.00,427.00 114.00,427.00 112.00,425.00 111.00,425.00 110.00,424.00 109.00,424.00 107.00,422.00 106.00,422.00 104.00,420.00 103.00,420.00 101.00,418.00 100.00,418.00 98.00,416.00 97.00,416.00 92.00,411.00 Z" fill="white" stroke="none"/>
  <path d="M 416.00,408.00 415.00,409.00 415.00,410.00 413.00,412.00 413.00,413.00 412.00,414.00 412.00,415.00 410.00,417.00 410.00,418.00 408.00,420.00 408.00,421.00 407.00,422.00 407.00,423.00 406.00,424.00 406.00,425.00 404.00,427.00 404.00,428.00 402.00,430.00 402.00,431.00 399.00,434.00 399.00,435.00 396.00,438.00 396.00,439.00 391.00,444.00 391.00,445.00 372.00,464.00 371.00,464.00 367.00,468.00 366.00,468.00 362.00,472.00 361.00,472.00 357.00,476.00 356.00,476.00 352.00,480.00 351.00,480.00 351.00,485.00 353.00,483.00 354.00,483.00 359.00,478.00 360.00,478.00 365.00,473.00 366.00,473.00 367.00,474.00 361.00,480.00 360.00,480.00 350.00,490.00 350.00,494.00 349.00,495.00 348.00,494.00 348.00,482.00 347.00,481.00 347.00,479.00 346.00,478.00 346.00,477.00 336.00,467.00 335.00,467.00 335.00,473.00 338.00,476.00 338.00,477.00 339.00,478.00 339.00,479.00 340.00,480.00 340.00,481.00 341.00,482.00 341.00,486.00 342.00,487.00 342.00,488.00 341.00,489.00 341.00,496.00 340.00,497.00 340.00,500.00 339.00,501.00 339.00,504.00 338.00,505.00 338.00,506.00 337.00,507.00 337.00,508.00 336.00,509.00 336.00,510.00 335.00,511.00 335.00,512.00 333.00,514.00 333.00,515.00 328.00,520.00 328.00,521.00 324.00,525.00 327.00,522.00 328.00,522.00 332.00,518.00 332.00,517.00 336.00,513.00 336.00,512.00 338.00,510.00 338.00,509.00 339.00,508.00 339.00,507.00 340.00,506.00 340.00,505.00 341.00,504.00 341.00,502.00 342.00,501.00 343.00,501.00 344.00,502.00 343.00,503.00 343.00,506.00 342.00,507.00 342.00,508.00 341.00,509.00 341.00,510.00 340.00,511.00 340.00,512.00 339.00,513.00 339.00,514.00 335.00,518.00 336.00,518.00 338.00,516.00 338.00,515.00 341.00,512.00 341.00,511.00 342.00,510.00 342.00,509.00 344.00,507.00 344.00,506.00 345.00,505.00 345.00,503.00 346.00,502.00 346.00,500.00 347.00,499.00 347.00,495.00 348.00,494.00 349.00,495.00 349.00,496.00 350.00,496.00 350.00,495.00 351.00,494.00 352.00,494.00 360.00,486.00 361.00,486.00 371.00,476.00 372.00,476.00 390.00,458.00 390.00,457.00 395.00,452.00 395.00,451.00 396.00,450.00 396.00,449.00 398.00,447.00 398.00,446.00 399.00,445.00 399.00,444.00 400.00,443.00 400.00,442.00 401.00,441.00 401.00,440.00 402.00,439.00 402.00,438.00 404.00,436.00 404.00,434.00 406.00,432.00 406.00,430.00 407.00,429.00 407.00,428.00 408.00,427.00 408.00,426.00 409.00,425.00 409.00,424.00 410.00,423.00 410.00,422.00 411.00,421.00 411.00,420.00 412.00,419.00 412.00,417.00 413.00,416.00 413.00,415.00 414.00,414.00 414.00,412.00 415.00,411.00 415.00,409.00 Z" fill="white" stroke="none"/>
  <path d="M 120.00,359.00 121.00,360.00 121.00,362.00 123.00,364.00 123.00,365.00 124.00,366.00 124.00,367.00 126.00,369.00 126.00,366.00 125.00,365.00 125.00,364.00 Z" fill="white" stroke="none"/>
  <path d="M 366.00,355.00 365.00,356.00 365.00,358.00 364.00,359.00 364.00,361.00 363.00,362.00 363.00,363.00 362.00,364.00 362.00,365.00 361.00,366.00 361.00,368.00 360.00,369.00 360.00,370.00 361.00,371.00 361.00,376.00 362.00,376.00 362.00,374.00 363.00,373.00 363.00,371.00 364.00,370.00 364.00,368.00 365.00,367.00 365.00,366.00 366.00,365.00 Z" fill="white" stroke="none"/>
  <path d="M 105.00,341.00 106.00,342.00 106.00,343.00 107.00,344.00 107.00,345.00 108.00,346.00 108.00,347.00 109.00,348.00 109.00,350.00 110.00,351.00 110.00,352.00 111.00,353.00 111.00,354.00 112.00,355.00 112.00,356.00 113.00,357.00 113.00,358.00 114.00,359.00 114.00,360.00 115.00,361.00 115.00,362.00 116.00,363.00 116.00,364.00 117.00,365.00 117.00,366.00 118.00,367.00 118.00,368.00 120.00,370.00 120.00,371.00 121.00,372.00 121.00,373.00 122.00,374.00 122.00,375.00 124.00,377.00 124.00,378.00 124.00,377.00 125.00,376.00 125.00,372.00 123.00,370.00 123.00,369.00 121.00,367.00 121.00,366.00 120.00,365.00 120.00,364.00 118.00,362.00 118.00,361.00 117.00,360.00 117.00,359.00 116.00,358.00 116.00,357.00 115.00,356.00 115.00,355.00 113.00,353.00 113.00,352.00 112.00,351.00 112.00,350.00 111.00,349.00 111.00,347.00 Z" fill="white" stroke="none"/>
  <path d="M 149.00,312.00 149.00,319.00 150.00,320.00 150.00,329.00 151.00,330.00 151.00,336.00 152.00,337.00 152.00,343.00 153.00,344.00 153.00,347.00 154.00,348.00 154.00,352.00 155.00,353.00 155.00,357.00 156.00,358.00 156.00,360.00 157.00,361.00 157.00,364.00 158.00,365.00 158.00,367.00 159.00,368.00 159.00,370.00 160.00,371.00 160.00,373.00 161.00,374.00 161.00,376.00 162.00,377.00 162.00,379.00 163.00,380.00 163.00,381.00 164.00,382.00 164.00,384.00 165.00,385.00 165.00,386.00 166.00,387.00 166.00,388.00 167.00,389.00 167.00,390.00 166.00,391.00 163.00,388.00 163.00,387.00 161.00,385.00 161.00,384.00 160.00,383.00 161.00,384.00 161.00,386.00 162.00,387.00 162.00,389.00 163.00,390.00 163.00,391.00 164.00,392.00 164.00,394.00 165.00,395.00 165.00,397.00 166.00,398.00 166.00,399.00 167.00,400.00 167.00,401.00 168.00,402.00 168.00,403.00 169.00,404.00 169.00,405.00 170.00,406.00 170.00,407.00 171.00,408.00 171.00,409.00 172.00,410.00 172.00,411.00 173.00,412.00 173.00,413.00 174.00,414.00 174.00,415.00 176.00,417.00 176.00,418.00 177.00,419.00 177.00,420.00 179.00,422.00 179.00,423.00 181.00,425.00 181.00,426.00 184.00,429.00 184.00,430.00 189.00,435.00 189.00,436.00 195.00,442.00 196.00,442.00 198.00,440.00 199.00,440.00 201.00,438.00 202.00,438.00 204.00,436.00 205.00,436.00 207.00,434.00 207.00,433.00 199.00,425.00 199.00,424.00 196.00,421.00 196.00,422.00 195.00,423.00 194.00,422.00 194.00,421.00 192.00,419.00 192.00,418.00 190.00,416.00 190.00,415.00 188.00,413.00 188.00,412.00 187.00,411.00 187.00,410.00 185.00,408.00 185.00,407.00 184.00,406.00 184.00,405.00 182.00,403.00 182.00,402.00 181.00,401.00 181.00,400.00 180.00,399.00 180.00,398.00 179.00,397.00 179.00,396.00 178.00,395.00 178.00,394.00 177.00,393.00 177.00,392.00 176.00,391.00 176.00,390.00 175.00,389.00 175.00,388.00 174.00,387.00 174.00,386.00 173.00,385.00 173.00,383.00 172.00,382.00 172.00,381.00 171.00,380.00 171.00,378.00 172.00,377.00 174.00,379.00 174.00,380.00 175.00,381.00 175.00,382.00 176.00,383.00 176.00,384.00 177.00,385.00 177.00,386.00 178.00,387.00 178.00,388.00 180.00,390.00 180.00,391.00 181.00,392.00 181.00,393.00 182.00,394.00 182.00,395.00 184.00,397.00 184.00,398.00 185.00,399.00 185.00,400.00 187.00,402.00 187.00,403.00 189.00,405.00 189.00,406.00 191.00,408.00 191.00,409.00 192.00,410.00 192.00,411.00 195.00,414.00 195.00,415.00 198.00,418.00 198.00,419.00 202.00,423.00 202.00,424.00 208.00,430.00 208.00,422.00 204.00,418.00 204.00,417.00 199.00,412.00 199.00,411.00 195.00,407.00 195.00,406.00 192.00,403.00 192.00,402.00 189.00,399.00 189.00,398.00 187.00,396.00 187.00,395.00 185.00,393.00 185.00,392.00 183.00,390.00 183.00,389.00 181.00,387.00 181.00,386.00 179.00,384.00 179.00,383.00 178.00,382.00 178.00,381.00 176.00,379.00 176.00,378.00 175.00,377.00 175.00,376.00 173.00,374.00 173.00,373.00 172.00,372.00 172.00,371.00 171.00,370.00 171.00,369.00 170.00,368.00 170.00,367.00 169.00,366.00 169.00,365.00 167.00,363.00 167.00,362.00 166.00,361.00 166.00,359.00 165.00,358.00 165.00,357.00 164.00,356.00 164.00,355.00 163.00,354.00 163.00,353.00 162.00,352.00 162.00,351.00 161.00,350.00 161.00,349.00 160.00,348.00 160.00,346.00 159.00,345.00 159.00,343.00 158.00,342.00 158.00,341.00 157.00,340.00 157.00,338.00 156.00,337.00 156.00,336.00 155.00,335.00 155.00,332.00 154.00,331.00 154.00,330.00 153.00,329.00 153.00,326.00 152.00,325.00 152.00,323.00 151.00,322.00 151.00,319.00 150.00,318.00 150.00,315.00 149.00,314.00 Z" fill="white" stroke="none"/>
  <path d="M 333.00,296.00 333.00,299.00 334.00,300.00 334.00,306.00 335.00,307.00 335.00,314.00 336.00,315.00 336.00,366.00 337.00,366.00 337.00,365.00 338.00,364.00 338.00,363.00 339.00,362.00 339.00,360.00 340.00,359.00 340.00,357.00 341.00,356.00 343.00,358.00 343.00,368.00 344.00,369.00 344.00,387.00 343.00,388.00 343.00,390.00 342.00,391.00 342.00,393.00 341.00,394.00 341.00,396.00 340.00,397.00 340.00,400.00 339.00,401.00 339.00,403.00 338.00,404.00 338.00,406.00 337.00,407.00 337.00,409.00 336.00,410.00 336.00,412.00 335.00,413.00 335.00,415.00 334.00,416.00 334.00,418.00 333.00,419.00 333.00,421.00 332.00,422.00 332.00,424.00 331.00,425.00 331.00,427.00 330.00,428.00 330.00,429.00 329.00,430.00 329.00,432.00 328.00,433.00 328.00,435.00 327.00,436.00 327.00,438.00 326.00,439.00 326.00,440.00 325.00,441.00 325.00,442.00 324.00,443.00 324.00,444.00 325.00,445.00 326.00,445.00 326.00,444.00 327.00,443.00 327.00,441.00 328.00,440.00 328.00,439.00 329.00,438.00 329.00,437.00 330.00,436.00 330.00,434.00 331.00,433.00 331.00,432.00 332.00,431.00 332.00,430.00 333.00,429.00 333.00,427.00 334.00,426.00 334.00,425.00 335.00,424.00 335.00,423.00 336.00,422.00 337.00,423.00 337.00,425.00 336.00,426.00 336.00,427.00 335.00,428.00 335.00,430.00 334.00,431.00 334.00,433.00 333.00,434.00 333.00,436.00 332.00,437.00 332.00,439.00 331.00,440.00 331.00,441.00 330.00,442.00 330.00,444.00 329.00,445.00 329.00,447.00 328.00,448.00 328.00,449.00 329.00,450.00 329.00,451.00 331.00,453.00 331.00,454.00 332.00,455.00 332.00,457.00 333.00,456.00 333.00,455.00 334.00,454.00 334.00,452.00 335.00,451.00 335.00,450.00 336.00,449.00 336.00,447.00 337.00,446.00 337.00,444.00 338.00,443.00 338.00,442.00 339.00,441.00 339.00,439.00 340.00,438.00 340.00,437.00 341.00,436.00 341.00,434.00 342.00,433.00 342.00,432.00 343.00,431.00 344.00,432.00 344.00,434.00 343.00,435.00 343.00,437.00 342.00,438.00 342.00,440.00 341.00,441.00 341.00,442.00 340.00,443.00 340.00,445.00 339.00,446.00 339.00,448.00 338.00,449.00 338.00,451.00 337.00,452.00 337.00,454.00 336.00,455.00 336.00,456.00 335.00,457.00 335.00,460.00 334.00,461.00 335.00,462.00 335.00,463.00 337.00,465.00 338.00,465.00 338.00,463.00 339.00,462.00 339.00,460.00 340.00,459.00 340.00,458.00 341.00,457.00 341.00,455.00 342.00,454.00 342.00,452.00 343.00,451.00 343.00,449.00 344.00,448.00 344.00,446.00 345.00,445.00 345.00,443.00 346.00,442.00 346.00,440.00 347.00,439.00 347.00,437.00 348.00,436.00 348.00,434.00 349.00,433.00 349.00,431.00 350.00,430.00 350.00,428.00 351.00,427.00 351.00,425.00 352.00,424.00 352.00,422.00 353.00,421.00 353.00,418.00 354.00,417.00 354.00,414.00 355.00,413.00 355.00,410.00 356.00,409.00 356.00,403.00 357.00,402.00 357.00,394.00 358.00,393.00 358.00,374.00 357.00,373.00 357.00,369.00 356.00,368.00 356.00,365.00 355.00,364.00 355.00,362.00 354.00,361.00 354.00,359.00 353.00,358.00 353.00,355.00 352.00,354.00 352.00,351.00 351.00,350.00 351.00,349.00 350.00,348.00 350.00,346.00 349.00,345.00 349.00,342.00 348.00,341.00 348.00,339.00 347.00,338.00 347.00,336.00 346.00,335.00 346.00,334.00 345.00,333.00 345.00,330.00 344.00,329.00 344.00,327.00 343.00,326.00 343.00,324.00 342.00,323.00 342.00,321.00 341.00,320.00 341.00,318.00 340.00,317.00 340.00,316.00 339.00,315.00 339.00,313.00 338.00,312.00 338.00,310.00 337.00,309.00 337.00,307.00 336.00,306.00 336.00,304.00 335.00,303.00 335.00,301.00 334.00,300.00 334.00,298.00 333.00,297.00 Z" fill="white" stroke="none"/>
  <path d="M 263.00,278.00 263.00,280.00 262.00,281.00 262.00,284.00 261.00,285.00 261.00,289.00 260.00,290.00 260.00,293.00 259.00,294.00 259.00,298.00 258.00,299.00 258.00,305.00 257.00,306.00 257.00,313.00 256.00,314.00 256.00,325.00 255.00,326.00 255.00,374.00 256.00,375.00 256.00,389.00 257.00,390.00 257.00,400.00 258.00,401.00 258.00,408.00 259.00,409.00 259.00,415.00 260.00,416.00 260.00,418.00 261.00,418.00 262.00,417.00 264.00,417.00 265.00,416.00 265.00,415.00 266.00,414.00 266.00,412.00 267.00,411.00 267.00,408.00 268.00,407.00 268.00,405.00 269.00,404.00 269.00,401.00 270.00,400.00 270.00,398.00 271.00,397.00 271.00,394.00 272.00,393.00 272.00,391.00 273.00,390.00 273.00,389.00 272.00,388.00 272.00,385.00 271.00,384.00 271.00,380.00 270.00,379.00 270.00,376.00 269.00,375.00 269.00,371.00 268.00,370.00 268.00,365.00 267.00,364.00 267.00,358.00 266.00,357.00 266.00,350.00 267.00,349.00 268.00,350.00 268.00,353.00 269.00,354.00 269.00,359.00 270.00,360.00 270.00,364.00 271.00,365.00 271.00,369.00 272.00,370.00 272.00,374.00 273.00,375.00 273.00,378.00 274.00,379.00 274.00,382.00 275.00,383.00 275.00,385.00 276.00,384.00 276.00,383.00 277.00,382.00 277.00,381.00 278.00,380.00 278.00,379.00 279.00,378.00 278.00,377.00 278.00,375.00 277.00,374.00 277.00,372.00 276.00,371.00 276.00,368.00 275.00,367.00 275.00,364.00 274.00,363.00 274.00,360.00 273.00,359.00 273.00,356.00 272.00,355.00 272.00,350.00 271.00,349.00 271.00,345.00 270.00,344.00 270.00,339.00 269.00,338.00 269.00,332.00 268.00,331.00 268.00,326.00 267.00,325.00 267.00,317.00 266.00,316.00 266.00,308.00 265.00,307.00 265.00,296.00 264.00,295.00 264.00,284.00 263.00,283.00 Z" fill="white" stroke="none"/>
  <path d="M 189.00,276.00 189.00,280.00 188.00,281.00 188.00,289.00 187.00,290.00 187.00,304.00 186.00,305.00 186.00,322.00 187.00,323.00 187.00,336.00 188.00,337.00 188.00,343.00 189.00,344.00 189.00,349.00 190.00,350.00 190.00,354.00 191.00,355.00 191.00,358.00 192.00,359.00 192.00,366.00 191.00,367.00 191.00,370.00 192.00,371.00 192.00,380.00 193.00,381.00 193.00,384.00 194.00,385.00 194.00,388.00 193.00,389.00 192.00,388.00 192.00,387.00 191.00,386.00 191.00,385.00 190.00,384.00 190.00,383.00 189.00,382.00 189.00,381.00 188.00,380.00 188.00,379.00 187.00,378.00 187.00,377.00 186.00,376.00 186.00,375.00 185.00,374.00 185.00,372.00 185.00,383.00 186.00,384.00 186.00,389.00 187.00,390.00 187.00,391.00 189.00,393.00 189.00,394.00 193.00,398.00 193.00,399.00 196.00,402.00 196.00,403.00 200.00,407.00 200.00,408.00 203.00,411.00 203.00,412.00 206.00,415.00 206.00,416.00 207.00,416.00 207.00,388.00 208.00,387.00 208.00,371.00 207.00,370.00 207.00,369.00 206.00,368.00 206.00,366.00 205.00,365.00 205.00,364.00 204.00,363.00 204.00,361.00 203.00,360.00 203.00,358.00 202.00,357.00 202.00,356.00 201.00,355.00 201.00,353.00 200.00,352.00 200.00,350.00 199.00,349.00 199.00,347.00 198.00,346.00 198.00,344.00 197.00,343.00 197.00,341.00 196.00,340.00 196.00,337.00 195.00,336.00 195.00,334.00 194.00,333.00 194.00,329.00 193.00,328.00 193.00,324.00 192.00,323.00 192.00,318.00 193.00,317.00 194.00,318.00 194.00,320.00 195.00,321.00 195.00,324.00 196.00,325.00 196.00,327.00 197.00,328.00 197.00,332.00 198.00,333.00 198.00,335.00 199.00,336.00 199.00,338.00 200.00,339.00 200.00,342.00 201.00,343.00 201.00,345.00 202.00,346.00 202.00,349.00 203.00,350.00 203.00,352.00 204.00,353.00 204.00,355.00 205.00,356.00 205.00,358.00 206.00,359.00 206.00,360.00 207.00,361.00 207.00,363.00 208.00,364.00 208.00,366.00 209.00,366.00 209.00,365.00 210.00,364.00 210.00,362.00 211.00,361.00 211.00,360.00 210.00,359.00 210.00,358.00 209.00,357.00 209.00,356.00 208.00,355.00 208.00,353.00 207.00,352.00 207.00,350.00 206.00,349.00 206.00,348.00 205.00,347.00 205.00,345.00 204.00,344.00 204.00,342.00 203.00,341.00 203.00,339.00 202.00,338.00 202.00,337.00 201.00,336.00 201.00,333.00 200.00,332.00 200.00,330.00 199.00,329.00 199.00,327.00 198.00,326.00 198.00,323.00 197.00,322.00 197.00,321.00 196.00,320.00 196.00,317.00 195.00,316.00 195.00,312.00 194.00,311.00 194.00,308.00 193.00,307.00 193.00,304.00 192.00,303.00 192.00,299.00 191.00,298.00 191.00,294.00 190.00,293.00 190.00,285.00 189.00,284.00 Z" fill="white" stroke="none"/>
  <path d="M 271.00,213.00 271.00,214.00 272.00,215.00 272.00,217.00 273.00,218.00 273.00,221.00 274.00,222.00 274.00,225.00 275.00,226.00 275.00,227.00 276.00,228.00 276.00,230.00 277.00,231.00 277.00,232.00 278.00,233.00 278.00,234.00 279.00,235.00 279.00,237.00 280.00,238.00 280.00,239.00 281.00,240.00 281.00,241.00 282.00,242.00 282.00,243.00 283.00,244.00 283.00,245.00 284.00,246.00 284.00,247.00 285.00,248.00 285.00,250.00 286.00,251.00 286.00,252.00 287.00,253.00 287.00,254.00 288.00,255.00 288.00,256.00 289.00,257.00 289.00,259.00 290.00,260.00 290.00,261.00 291.00,262.00 291.00,264.00 292.00,265.00 292.00,267.00 293.00,268.00 293.00,271.00 294.00,272.00 294.00,276.00 295.00,277.00 295.00,283.00 296.00,284.00 296.00,291.00 297.00,292.00 297.00,300.00 298.00,301.00 298.00,310.00 299.00,311.00 299.00,323.00 300.00,324.00 300.00,340.00 301.00,341.00 301.00,346.00 302.00,345.00 302.00,344.00 304.00,342.00 304.00,341.00 305.00,340.00 305.00,339.00 306.00,338.00 306.00,327.00 305.00,326.00 305.00,317.00 304.00,316.00 304.00,308.00 303.00,307.00 303.00,301.00 302.00,300.00 302.00,294.00 301.00,293.00 301.00,288.00 300.00,287.00 300.00,283.00 299.00,282.00 299.00,279.00 300.00,278.00 301.00,279.00 301.00,280.00 302.00,281.00 302.00,284.00 303.00,285.00 303.00,289.00 304.00,290.00 304.00,294.00 305.00,295.00 305.00,302.00 306.00,303.00 306.00,309.00 307.00,310.00 307.00,320.00 308.00,321.00 308.00,332.00 309.00,333.00 309.00,331.00 310.00,330.00 310.00,329.00 311.00,328.00 311.00,318.00 310.00,317.00 310.00,311.00 309.00,310.00 309.00,305.00 308.00,304.00 308.00,300.00 307.00,299.00 307.00,296.00 308.00,295.00 309.00,296.00 309.00,297.00 310.00,298.00 310.00,301.00 311.00,302.00 311.00,305.00 312.00,306.00 312.00,310.00 313.00,311.00 313.00,317.00 314.00,318.00 314.00,321.00 315.00,320.00 315.00,318.00 316.00,317.00 316.00,316.00 317.00,315.00 317.00,311.00 316.00,310.00 316.00,302.00 315.00,301.00 315.00,298.00 314.00,297.00 314.00,294.00 313.00,293.00 313.00,291.00 312.00,290.00 312.00,288.00 311.00,287.00 311.00,286.00 310.00,285.00 310.00,283.00 309.00,282.00 309.00,281.00 308.00,280.00 308.00,279.00 307.00,278.00 307.00,277.00 306.00,276.00 306.00,275.00 304.00,273.00 304.00,272.00 303.00,271.00 303.00,270.00 302.00,269.00 302.00,268.00 300.00,266.00 300.00,265.00 299.00,264.00 299.00,263.00 298.00,262.00 298.00,261.00 297.00,260.00 297.00,259.00 295.00,257.00 295.00,256.00 294.00,255.00 294.00,254.00 293.00,253.00 293.00,252.00 292.00,251.00 292.00,250.00 290.00,248.00 290.00,247.00 289.00,246.00 289.00,245.00 288.00,244.00 288.00,243.00 287.00,242.00 287.00,241.00 285.00,239.00 285.00,238.00 284.00,237.00 284.00,236.00 283.00,235.00 283.00,234.00 282.00,233.00 282.00,232.00 281.00,231.00 281.00,230.00 279.00,228.00 279.00,227.00 278.00,226.00 278.00,225.00 277.00,224.00 277.00,223.00 276.00,222.00 276.00,221.00 274.00,219.00 274.00,218.00 273.00,217.00 273.00,216.00 272.00,215.00 272.00,214.00 Z" fill="white" stroke="none"/>
</svg>